PathFileType	4	(x/y/z)	S01_M20_T04.trc
DataRate	CameraRate	NumFrames	NumMarkers	Units	OrigDataRate	OrigDataStartFrame	OrigNumFrames
240	240	10	51	mm	240	451	720
Frame#	Time	Sternum			R.Acromium			L.Acromium			Top.Head			R.ASIS			L.ASIS			R.PSIS			L.PSIS			R.Great.Tro			L.Great.Tro			R.Iliac.Crest			L.Iliac.Crest			V.Sacral			R.Thigh.Upper.Post			R.Thigh.Lower.Ant			R.Thigh.Lower.Post			R.Thigh.Upper.Ant			R.Knee.Lat			R.Knee.Med			R.Shank.Upper.Post			R.Shank.Lower.Ant			R.Shank.Lower.Post			R.Shank.Upper.Ant			R.Ankle.Lat			R.Ankle.Med			R.Heel.Upper			R.Heel.Med			R.Heel.Lat			R.Toe.Lat			R.Toe.Med			R.Toe.Tip			L.Thigh.Upper.Post			L.Thigh.Lower.Ant			L.Thigh.Lower.Post			L.Thigh.Upper.Ant			L.Knee.Lat			L.Knee.Med			L.Shank.Upper.Post			L.Shank.Lower.Ant			L.Shank.Lower.Post			L.Shank.Upper.Ant			L.Ankle.Lat			L.Ankle.Med			L.Heel.Upper			L.Heel.Med			L.Heel.Lat			L.Toe.Lat			L.Toe.Med			L.Toe.Tip			Cervical.Spine			Back			
		X1	Y1	Z1	X2	Y2	Z2	X3	Y3	Z3	X4	Y4	Z4	X5	Y5	Z5	X6	Y6	Z6	X7	Y7	Z7	X8	Y8	Z8	X9	Y9	Z9	X10	Y10	Z10	X11	Y11	Z11	X12	Y12	Z12	X13	Y13	Z13	X14	Y14	Z14	X15	Y15	Z15	X16	Y16	Z16	X17	Y17	Z17	X18	Y18	Z18	X19	Y19	Z19	X20	Y20	Z20	X21	Y21	Z21	X22	Y22	Z22	X23	Y23	Z23	X24	Y24	Z24	X25	Y25	Z25	X26	Y26	Z26	X27	Y27	Z27	X28	Y28	Z28	X29	Y29	Z29	X30	Y30	Z30	X31	Y31	Z31	X32	Y32	Z32	X33	Y33	Z33	X34	Y34	Z34	X35	Y35	Z35	X36	Y36	Z36	X37	Y37	Z37	X38	Y38	Z38	X39	Y39	Z39	X40	Y40	Z40	X41	Y41	Z41	X42	Y42	Z42	X43	Y43	Z43	X44	Y44	Z44	X45	Y45	Z45	X46	Y46	Z46	X47	Y47	Z47	X48	Y48	Z48	X49	Y49	Z49	X50	Y50	Z50	X51	Y51	Z51	

451	1.875	760.14	1082.1	467.94	573.53	1342.6	447.01	897.62	1383	443.76	719.3	1664.5	529.9	612.15	872.93	331.44	878.99	867.79	347.52	719.49	979	118.39	823.02	976.79	124.28	528.31	881.95	244.29	974.48	875.37	241.95	549.92	985.88	278.94	958.51	976.89	274.29	774.61	944.89	100.5	448.37	623.55	340.08	429.93	602.56	439.54	435.1	551.58	392.65	446.53	677.33	390.59	411.78	510.89	438.68	546.41	488.17	488.98	394.19	377.85	349.24	409.96	276.04	390	400.48	310.51	326.23	397.47	347.01	408.28	419.37	112.14	269.72	498.84	101.26	325.44	489.63	75.968	211.72	509.57	43.209	233.3	449.94	49.291	209.82	336.01	40.651	371.27	444.03	39.704	440.79	372.33	57.992	484.17	1024.2	613.25	304.85	1068.9	597.12	404.84	1036	540.99	359.86	1053.5	668.1	342.26	1084.7	499.44	431.51	952.72	485.96	499.59	1102	394.06	350.9	1107.5	287.76	385.24	1109.3	320.36	327.51	1107.7	361.88	407.6	1092.1	114.71	251.33	1005.6	105.61	304.58	1032.6	79.446	189.79	1005.9	50.455	206.21	1064.7	56.262	187.77	1165.1	39.458	372.35	1059	44.668	437.35	1128.4	48.205	480.84	725.62	1447.3	384.24	736.22	1191.2	191.22
452	1.8792	760.03	1082.5	467.63	573.56	1343.1	446.64	897.69	1383.4	443.29	719.49	1665	529.33	611.84	873.24	331.38	878.74	868.1	347.47	719.23	979.24	118.31	822.76	977.02	124.15	528.01	882.13	244.23	974.21	875.55	241.81	549.48	986.03	278.64	958.4	977.02	274.06	774.33	945.11	100.4	448.26	623.6	339.99	429.88	602.54	439.47	435.08	551.59	392.54	446.39	677.35	390.55	411.79	510.89	438.57	546.41	488.25	488.85	394.17	377.83	349.17	409.96	276.03	389.97	400.45	310.48	326.19	397.47	347.01	408.23	419.33	112.11	269.72	498.82	101.24	325.42	489.58	75.953	211.71	509.54	43.211	233.3	449.91	49.251	209.82	335.99	40.638	371.28	444.03	39.689	440.8	372.33	57.96	484.18	1024	613.43	304.61	1068.6	597.23	404.56	1035.7	541.12	359.57	1053.2	668.25	342.04	1084.5	499.57	431.2	952.55	486.07	499.36	1101.8	394.14	350.62	1107.4	287.88	385.03	1109.1	320.44	327.29	1107.6	362.01	407.34	1092.1	114.69	251.3	1005.6	105.6	304.55	1032.6	79.398	189.76	1005.9	50.422	206.19	1064.7	56.213	187.75	1165.1	39.46	372.34	1059	44.696	437.34	1128.3	48.246	480.83	725.71	1447.8	383.81	736.11	1191.5	190.94
453	1.8833	759.9	1082.9	467.31	573.57	1343.7	446.26	897.75	1383.8	442.83	719.65	1665.5	528.75	611.53	873.56	331.33	878.47	868.43	347.44	718.97	979.48	118.22	822.51	977.24	124.03	527.71	882.33	244.17	973.94	875.74	241.69	549.04	986.2	278.33	958.26	977.18	273.87	774.07	945.33	100.3	448.16	623.66	339.91	429.84	602.53	439.4	435.05	551.61	392.43	446.27	677.39	390.51	411.8	510.91	438.47	546.41	488.32	488.72	394.15	377.81	349.11	409.96	276.03	389.93	400.42	310.45	326.14	397.47	347.01	408.17	419.3	112.09	269.71	498.8	101.23	325.4	489.53	75.939	211.71	509.5	43.213	233.3	449.87	49.211	209.81	335.98	40.624	371.29	444.03	39.673	440.81	372.33	57.928	484.19	1023.7	613.62	304.38	1068.4	597.34	404.3	1035.3	541.26	359.3	1053	668.41	341.82	1084.3	499.7	430.89	952.39	486.17	499.13	1101.6	394.23	350.35	1107.3	287.99	384.82	1109	320.52	327.07	1107.4	362.13	407.09	1092.1	114.68	251.26	1005.5	105.58	304.51	1032.6	79.349	189.74	1005.9	50.389	206.16	1064.7	56.163	187.74	1165.1	39.461	372.33	1059	44.723	437.32	1128.3	48.285	480.81	725.78	1448.2	383.37	736	1191.9	190.65
454	1.8875	759.75	1083.4	466.99	573.56	1344.2	445.86	897.79	1384.2	442.38	719.79	1666.1	528.16	611.22	873.91	331.28	878.2	868.79	347.43	718.73	979.72	118.14	822.26	977.48	123.92	527.41	882.55	244.13	973.67	875.94	241.6	548.62	986.4	278.02	958.09	977.39	273.7	773.81	945.55	100.22	448.06	623.73	339.84	429.81	602.53	439.34	435.03	551.64	392.32	446.15	677.43	390.48	411.82	510.92	438.36	546.42	488.39	488.58	394.14	377.79	349.04	409.96	276.04	389.9	400.39	310.43	326.1	397.47	347.02	408.12	419.26	112.06	269.71	498.78	101.22	325.38	489.47	75.926	211.7	509.47	43.216	233.29	449.84	49.171	209.81	335.97	40.61	371.3	444.02	39.657	440.82	372.32	57.896	484.21	1023.4	613.81	304.15	1068.2	597.46	404.04	1035	541.41	359.02	1052.7	668.58	341.63	1084.1	499.83	430.59	952.22	486.26	498.89	1101.4	394.31	350.08	1107.2	288.1	384.61	1108.8	320.59	326.85	1107.3	362.25	406.84	1092	114.65	251.22	1005.5	105.56	304.48	1032.6	79.299	189.71	1005.9	50.354	206.14	1064.7	56.109	187.73	1165.1	39.461	372.32	1059	44.749	437.3	1128.3	48.324	480.8	725.84	1448.7	382.94	735.88	1192.2	190.36
455	1.8917	759.58	1083.8	466.68	573.53	1344.7	445.45	897.81	1384.6	441.95	719.89	1666.6	527.57	610.92	874.28	331.23	877.92	869.18	347.44	718.49	979.97	118.05	822.02	977.72	123.81	527.11	882.8	244.09	973.39	876.15	241.53	548.2	986.64	277.71	957.9	977.65	273.57	773.56	945.77	100.14	447.96	623.81	339.77	429.79	602.53	439.28	435	551.68	392.22	446.04	677.47	390.46	411.84	510.94	438.26	546.43	488.46	488.44	394.13	377.78	348.98	409.96	276.04	389.86	400.37	310.4	326.05	397.48	347.02	408.06	419.22	112.03	269.7	498.75	101.2	325.36	489.42	75.913	211.69	509.44	43.219	233.29	449.8	49.13	209.81	335.96	40.596	371.31	444.02	39.641	440.83	372.32	57.864	484.22	1023.1	614.03	303.93	1067.9	597.58	403.8	1034.6	541.56	358.76	1052.4	668.76	341.45	1083.8	499.95	430.29	952.05	486.35	498.66	1101.2	394.4	349.82	1107	288.21	384.41	1108.7	320.66	326.63	1107.1	362.37	406.59	1092	114.63	251.19	1005.5	105.53	304.45	1032.7	79.247	189.69	1005.9	50.318	206.11	1064.7	56.053	187.71	1165.1	39.459	372.31	1059	44.775	437.28	1128.3	48.361	480.78	725.88	1449.1	382.5	735.76	1192.5	190.07
456	1.8958	759.39	1084.2	466.36	573.49	1345.2	445.03	897.82	1385	441.52	719.98	1667.1	526.98	610.61	874.67	331.18	877.63	869.59	347.47	718.26	980.23	117.96	821.79	977.96	123.72	526.81	883.08	244.05	973.11	876.38	241.49	547.8	986.93	277.41	957.68	977.95	273.48	773.33	945.99	100.08	447.86	623.9	339.7	429.77	602.55	439.22	434.97	551.74	392.11	445.93	677.53	390.43	411.87	510.96	438.16	546.44	488.54	488.28	394.11	377.76	348.9	409.97	276.05	389.83	400.34	310.38	326	397.49	347.03	408	419.17	112.01	269.7	498.72	101.19	325.34	489.36	75.9	211.69	509.4	43.223	233.29	449.76	49.089	209.8	335.95	40.582	371.33	444.02	39.624	440.83	372.32	57.832	484.23	1022.9	614.25	303.72	1067.7	597.71	403.58	1034.3	541.73	358.5	1052.1	668.94	341.29	1083.6	500.08	430	951.88	486.42	498.42	1101	394.48	349.55	1106.9	288.32	384.2	1108.5	320.73	326.41	1107	362.49	406.34	1092	114.61	251.15	1005.5	105.51	304.42	1032.7	79.194	189.66	1005.9	50.281	206.09	1064.7	55.995	187.7	1165.1	39.457	372.3	1059	44.799	437.26	1128.3	48.397	480.77	725.91	1449.6	382.06	735.64	1192.8	189.78
457	1.9	759.18	1084.7	466.05	573.42	1345.7	444.6	897.81	1385.3	441.11	720.04	1667.7	526.38	610.31	875.09	331.13	877.33	870.02	347.52	718.03	980.48	117.87	821.56	978.21	123.63	526.51	883.38	244.02	972.82	876.63	241.48	547.42	987.26	277.11	957.44	978.29	273.42	773.11	946.22	100.02	447.77	623.99	339.63	429.76	602.56	439.15	434.95	551.79	392	445.83	677.59	390.4	411.9	510.98	438.04	546.47	488.61	488.12	394.11	377.75	348.83	409.98	276.05	389.79	400.32	310.35	325.95	397.5	347.05	407.93	419.13	111.98	269.69	498.7	101.18	325.32	489.31	75.887	211.68	509.37	43.227	233.29	449.72	49.047	209.8	335.94	40.567	371.34	444.02	39.608	440.84	372.33	57.8	484.25	1022.6	614.49	303.51	1067.4	597.86	403.37	1033.9	541.91	358.25	1051.9	669.15	341.15	1083.3	500.2	429.71	951.7	486.49	498.18	1100.7	394.56	349.29	1106.8	288.43	384	1108.3	320.8	326.19	1106.8	362.61	406.09	1092	114.59	251.11	1005.5	105.48	304.39	1032.7	79.139	189.64	1005.9	50.242	206.06	1064.7	55.933	187.68	1165.1	39.454	372.29	1059	44.823	437.24	1128.3	48.433	480.75	725.92	1450.1	381.61	735.52	1193.2	189.48
458	1.9042	758.96	1085.1	465.75	573.34	1346.3	444.15	897.79	1385.7	440.72	720.07	1668.2	525.78	610.01	875.54	331.08	877.02	870.49	347.58	717.82	980.75	117.78	821.35	978.47	123.56	526.2	883.71	243.99	972.53	876.88	241.5	547.06	987.65	276.82	957.18	978.67	273.39	772.89	946.45	99.972	447.68	624.09	339.55	429.76	602.59	439.08	434.93	551.86	391.88	445.74	677.66	390.36	411.94	511.01	437.92	546.5	488.69	487.94	394.11	377.74	348.75	409.99	276.07	389.74	400.3	310.33	325.89	397.52	347.06	407.86	419.09	111.96	269.68	498.67	101.17	325.3	489.25	75.875	211.67	509.33	43.232	233.29	449.69	49.005	209.79	335.93	40.553	371.35	444.02	39.591	440.85	372.33	57.768	484.26	1022.4	614.74	303.32	1067.1	598.01	403.17	1033.6	542.1	358	1051.6	669.36	341.03	1083.1	500.33	429.43	951.51	486.56	497.95	1100.5	394.65	349.02	1106.7	288.54	383.8	1108.1	320.87	325.97	1106.6	362.72	405.84	1092	114.56	251.07	1005.5	105.46	304.35	1032.7	79.083	189.61	1005.9	50.202	206.03	1064.7	55.87	187.67	1165.1	39.449	372.28	1059	44.846	437.22	1128.3	48.467	480.74	725.92	1450.6	381.17	735.39	1193.5	189.18
459	1.9083	758.72	1085.6	465.44	573.24	1346.8	443.69	897.75	1386.1	440.33	720.08	1668.8	525.19	609.7	876.01	331.02	876.7	870.97	347.67	717.62	981.02	117.69	821.14	978.74	123.49	525.9	884.06	243.96	972.23	877.16	241.55	546.72	988.08	276.55	956.89	979.08	273.4	772.7	946.69	99.933	447.59	624.2	339.47	429.77	602.62	439	434.92	551.94	391.75	445.65	677.74	390.32	411.99	511.05	437.79	546.53	488.77	487.75	394.11	377.73	348.65	410.01	276.08	389.69	400.29	310.31	325.82	397.54	347.09	407.77	419.05	111.94	269.68	498.64	101.16	325.28	489.19	75.862	211.67	509.3	43.237	233.29	449.65	48.963	209.78	335.93	40.538	371.37	444.02	39.574	440.86	372.33	57.737	484.27	1022.1	615.02	303.12	1066.9	598.16	402.98	1033.2	542.3	357.77	1051.3	669.59	340.93	1082.8	500.46	429.15	951.32	486.61	497.7	1100.3	394.73	348.76	1106.6	288.65	383.59	1108	320.94	325.75	1106.5	362.84	405.59	1092	114.54	251.03	1005.5	105.43	304.32	1032.7	79.026	189.58	1005.9	50.16	206.01	1064.7	55.805	187.65	1165.1	39.444	372.28	1059	44.868	437.2	1128.3	48.5	480.72	725.91	1451.1	380.72	735.26	1193.9	188.87
460	1.9125	758.46	1086.1	465.15	573.13	1347.4	443.22	897.7	1386.6	439.97	720.06	1669.4	524.59	609.4	876.51	330.96	876.37	871.49	347.77	717.42	981.31	117.59	820.94	979.03	123.43	525.59	884.44	243.93	971.93	877.45	241.63	546.4	988.56	276.28	956.59	979.53	273.44	772.51	946.93	99.901	447.51	624.32	339.37	429.78	602.65	438.91	434.91	552.02	391.61	445.57	677.83	390.26	412.05	511.09	437.65	546.58	488.86	487.55	394.12	377.73	348.55	410.03	276.1	389.64	400.28	310.3	325.74	397.56	347.12	407.68	419.01	111.91	269.67	498.61	101.15	325.26	489.14	75.85	211.66	509.27	43.243	233.29	449.61	48.92	209.78	335.92	40.525	371.39	444.02	39.556	440.87	372.34	57.707	484.29	1021.9	615.3	302.94	1066.6	598.33	402.81	1032.9	542.51	357.53	1051	669.83	340.85	1082.6	500.59	428.87	951.12	486.67	497.46	1100.1	394.81	348.49	1106.4	288.75	383.38	1107.8	321	325.53	1106.3	362.96	405.34	1092	114.51	250.99	1005.5	105.4	304.28	1032.7	78.968	189.56	1005.9	50.115	205.98	1064.7	55.739	187.64	1165.1	39.439	372.27	1059	44.888	437.18	1128.3	48.532	480.71	725.88	1451.6	380.28	735.12	1194.3	188.56
